# Blender 5.1.1
# www.blender.org
mtllib tetraorthodrome_exact.mtl
o equator
v 0.000000 0.000000 -1.000000
v -0.195090 0.000000 -0.980785
v -0.382683 0.000000 -0.923880
v -0.555570 0.000000 -0.831470
v -0.707107 0.000000 -0.707107
v -0.831470 0.000000 -0.555570
v -0.923880 0.000000 -0.382683
v -0.980785 0.000000 -0.195090
v -1.000000 0.000000 0.000000
v -0.980785 0.000000 0.195090
v -0.923880 0.000000 0.382683
v -0.831470 0.000000 0.555570
v -0.707107 0.000000 0.707107
v -0.555570 0.000000 0.831470
v -0.382683 0.000000 0.923880
v -0.195090 0.000000 0.980785
v 0.000000 0.000000 1.000000
v 0.195090 0.000000 0.980785
v 0.382683 0.000000 0.923880
v 0.555570 0.000000 0.831470
v 0.707107 0.000000 0.707107
v 0.831470 0.000000 0.555570
v 0.923880 0.000000 0.382683
v 0.980785 0.000000 0.195090
v 1.000000 0.000000 0.000000
v 0.980785 0.000000 -0.195090
v 0.923880 0.000000 -0.382683
v 0.831470 0.000000 -0.555570
v 0.707107 0.000000 -0.707107
v 0.555570 0.000000 -0.831470
v 0.382683 0.000000 -0.923880
v 0.195090 0.000000 -0.980785
l 2 1
l 3 2
l 4 3
l 5 4
l 6 5
l 7 6
l 8 7
l 9 8
l 10 9
l 11 10
l 12 11
l 13 12
l 14 13
l 15 14
l 16 15
l 17 16
l 18 17
l 19 18
l 20 19
l 21 20
l 22 21
l 23 22
l 24 23
l 25 24
l 26 25
l 27 26
l 28 27
l 29 28
l 30 29
l 31 30
l 32 31
l 1 32
o meridian_lam0
v 0.000000 0.000000 -1.000000
v -0.000000 0.195090 -0.980785
v -0.000000 0.382683 -0.923880
v -0.000000 0.555570 -0.831470
v -0.000000 0.707107 -0.707107
v -0.000000 0.831470 -0.555570
v -0.000000 0.923880 -0.382683
v -0.000000 0.980785 -0.195090
v -0.000000 1.000000 0.000000
v -0.000000 0.980785 0.195090
v -0.000000 0.923880 0.382683
v -0.000000 0.831470 0.555570
v -0.000000 0.707107 0.707107
v -0.000000 0.555570 0.831470
v -0.000000 0.382683 0.923880
v -0.000000 0.195090 0.980785
v 0.000000 0.000000 1.000000
v 0.000000 -0.195090 0.980785
v 0.000000 -0.382683 0.923880
v 0.000000 -0.555570 0.831470
v 0.000000 -0.707107 0.707107
v 0.000000 -0.831470 0.555570
v 0.000000 -0.923880 0.382683
v 0.000000 -0.980785 0.195090
v 0.000000 -1.000000 0.000000
v 0.000000 -0.980785 -0.195090
v 0.000000 -0.923880 -0.382683
v 0.000000 -0.831470 -0.555570
v 0.000000 -0.707107 -0.707107
v 0.000000 -0.555570 -0.831470
v 0.000000 -0.382683 -0.923880
v 0.000000 -0.195090 -0.980785
l 34 33
l 35 34
l 36 35
l 37 36
l 38 37
l 39 38
l 40 39
l 41 40
l 42 41
l 43 42
l 44 43
l 45 44
l 46 45
l 47 46
l 48 47
l 49 48
l 50 49
l 51 50
l 52 51
l 53 52
l 54 53
l 55 54
l 56 55
l 57 56
l 58 57
l 59 58
l 60 59
l 61 60
l 62 61
l 63 62
l 64 63
l 33 64
o meridian_lam90
v 0.000000 -1.000000 -0.000000
v -0.195090 -0.980785 -0.000000
v -0.382683 -0.923880 -0.000000
v -0.555570 -0.831470 -0.000000
v -0.707107 -0.707107 -0.000000
v -0.831470 -0.555570 -0.000000
v -0.923880 -0.382683 -0.000000
v -0.980785 -0.195090 -0.000000
v -1.000000 0.000000 0.000000
v -0.980785 0.195090 0.000000
v -0.923880 0.382683 0.000000
v -0.831470 0.555570 0.000000
v -0.707107 0.707107 0.000000
v -0.555570 0.831470 0.000000
v -0.382683 0.923880 0.000000
v -0.195090 0.980785 0.000000
v 0.000000 1.000000 0.000000
v 0.195090 0.980785 0.000000
v 0.382683 0.923880 0.000000
v 0.555570 0.831470 0.000000
v 0.707107 0.707107 0.000000
v 0.831470 0.555570 0.000000
v 0.923880 0.382683 0.000000
v 0.980785 0.195090 0.000000
v 1.000000 0.000000 0.000000
v 0.980785 -0.195090 -0.000000
v 0.923880 -0.382683 -0.000000
v 0.831470 -0.555570 -0.000000
v 0.707107 -0.707107 -0.000000
v 0.555570 -0.831470 -0.000000
v 0.382683 -0.923880 -0.000000
v 0.195090 -0.980785 -0.000000
l 66 65
l 67 66
l 68 67
l 69 68
l 70 69
l 71 70
l 72 71
l 73 72
l 74 73
l 75 74
l 76 75
l 77 76
l 78 77
l 79 78
l 80 79
l 81 80
l 82 81
l 83 82
l 84 83
l 85 84
l 86 85
l 87 86
l 88 87
l 89 88
l 90 89
l 91 90
l 92 91
l 93 92
l 94 93
l 95 94
l 96 95
l 65 96
o meridian_xy
v -0.500000 -0.707107 -0.500000
v -0.587938 -0.555570 -0.587938
v -0.653281 -0.382683 -0.653281
v -0.693520 -0.195090 -0.693520
v -0.707107 0.000000 -0.707107
v -0.693520 0.195090 -0.693520
v -0.653281 0.382683 -0.653281
v -0.587938 0.555570 -0.587938
v -0.500000 0.707107 -0.500000
v -0.392847 0.831470 -0.392847
v -0.270598 0.923880 -0.270598
v -0.137950 0.980785 -0.137950
v 0.000000 1.000000 0.000000
v 0.137950 0.980785 0.137950
v 0.270598 0.923880 0.270598
v 0.392847 0.831470 0.392847
v 0.500000 0.707107 0.500000
v 0.587938 0.555570 0.587938
v 0.653281 0.382683 0.653281
v 0.693520 0.195090 0.693520
v 0.707107 0.000000 0.707107
v 0.693520 -0.195090 0.693520
v 0.653281 -0.382683 0.653281
v 0.587938 -0.555570 0.587938
v 0.500000 -0.707107 0.500000
v 0.392847 -0.831470 0.392847
v 0.270598 -0.923880 0.270598
v 0.137950 -0.980785 0.137950
v 0.000000 -1.000000 0.000000
v -0.137950 -0.980785 -0.137950
v -0.270598 -0.923880 -0.270598
v -0.392847 -0.831470 -0.392847
l 98 97
l 99 98
l 100 99
l 101 100
l 102 101
l 103 102
l 104 103
l 105 104
l 106 105
l 107 106
l 108 107
l 109 108
l 110 109
l 111 110
l 112 111
l 113 112
l 114 113
l 115 114
l 116 115
l 117 116
l 118 117
l 119 118
l 120 119
l 121 120
l 122 121
l 123 122
l 124 123
l 125 124
l 126 125
l 127 126
l 128 127
l 97 128
o meridian_x-y
v 0.500000 -0.707107 -0.500000
v 0.392847 -0.831470 -0.392847
v 0.270598 -0.923880 -0.270598
v 0.137950 -0.980785 -0.137950
v 0.000000 -1.000000 0.000000
v -0.137950 -0.980785 0.137950
v -0.270598 -0.923880 0.270598
v -0.392847 -0.831470 0.392847
v -0.500000 -0.707107 0.500000
v -0.587938 -0.555570 0.587938
v -0.653281 -0.382683 0.653281
v -0.693520 -0.195090 0.693520
v -0.707107 0.000000 0.707107
v -0.693520 0.195090 0.693520
v -0.653281 0.382683 0.653281
v -0.587938 0.555570 0.587938
v -0.500000 0.707107 0.500000
v -0.392847 0.831470 0.392847
v -0.270598 0.923880 0.270598
v -0.137950 0.980785 0.137950
v 0.000000 1.000000 0.000000
v 0.137950 0.980785 -0.137950
v 0.270598 0.923880 -0.270598
v 0.392847 0.831470 -0.392847
v 0.500000 0.707107 -0.500000
v 0.587938 0.555570 -0.587938
v 0.653281 0.382683 -0.653281
v 0.693520 0.195090 -0.693520
v 0.707107 0.000000 -0.707107
v 0.693520 -0.195090 -0.693520
v 0.653281 -0.382683 -0.653281
v 0.587938 -0.555570 -0.587938
l 130 129
l 131 130
l 132 131
l 133 132
l 134 133
l 135 134
l 136 135
l 137 136
l 138 137
l 139 138
l 140 139
l 141 140
l 142 141
l 143 142
l 144 143
l 145 144
l 146 145
l 147 146
l 148 147
l 149 148
l 150 149
l 151 150
l 152 151
l 153 152
l 154 153
l 155 154
l 156 155
l 157 156
l 158 157
l 159 158
l 160 159
l 129 160
o flex_x-z
v 0.000000 0.000000 -1.000000
v 0.137950 0.137950 -0.980785
v 0.270598 0.270598 -0.923880
v 0.392848 0.392847 -0.831470
v 0.500000 0.500000 -0.707107
v 0.587938 0.587938 -0.555570
v 0.653282 0.653281 -0.382683
v 0.693520 0.693520 -0.195090
v 0.707107 0.707107 0.000000
v 0.693520 0.693520 0.195090
v 0.653282 0.653281 0.382683
v 0.587938 0.587938 0.555570
v 0.500000 0.500000 0.707107
v 0.392848 0.392847 0.831470
v 0.270598 0.270598 0.923880
v 0.137950 0.137950 0.980785
v 0.000000 0.000000 1.000000
v -0.137950 -0.137950 0.980785
v -0.270598 -0.270598 0.923880
v -0.392848 -0.392847 0.831470
v -0.500000 -0.500000 0.707107
v -0.587938 -0.587938 0.555570
v -0.653282 -0.653281 0.382683
v -0.693520 -0.693520 0.195090
v -0.707107 -0.707107 0.000000
v -0.693520 -0.693520 -0.195090
v -0.653282 -0.653281 -0.382683
v -0.587938 -0.587938 -0.555570
v -0.500000 -0.500000 -0.707107
v -0.392848 -0.392847 -0.831470
v -0.270598 -0.270598 -0.923880
v -0.137950 -0.137950 -0.980785
l 162 161
l 163 162
l 164 163
l 165 164
l 166 165
l 167 166
l 168 167
l 169 168
l 170 169
l 171 170
l 172 171
l 173 172
l 174 173
l 175 174
l 176 175
l 177 176
l 178 177
l 179 178
l 180 179
l 181 180
l 182 181
l 183 182
l 184 183
l 185 184
l 186 185
l 187 186
l 188 187
l 189 188
l 190 189
l 191 190
l 192 191
l 161 192
o flex_x+z
v 0.000000 0.000000 -1.000000
v -0.137950 0.137950 -0.980785
v -0.270598 0.270598 -0.923880
v -0.392847 0.392848 -0.831470
v -0.500000 0.500000 -0.707107
v -0.587938 0.587938 -0.555570
v -0.653281 0.653282 -0.382683
v -0.693520 0.693520 -0.195090
v -0.707107 0.707107 0.000000
v -0.693520 0.693520 0.195090
v -0.653281 0.653282 0.382683
v -0.587938 0.587938 0.555570
v -0.500000 0.500000 0.707107
v -0.392847 0.392848 0.831470
v -0.270598 0.270598 0.923880
v -0.137950 0.137950 0.980785
v 0.000000 0.000000 1.000000
v 0.137950 -0.137950 0.980785
v 0.270598 -0.270598 0.923880
v 0.392847 -0.392848 0.831470
v 0.500000 -0.500000 0.707107
v 0.587938 -0.587938 0.555570
v 0.653281 -0.653282 0.382683
v 0.693520 -0.693520 0.195090
v 0.707107 -0.707107 0.000000
v 0.693520 -0.693520 -0.195090
v 0.653281 -0.653282 -0.382683
v 0.587938 -0.587938 -0.555570
v 0.500000 -0.500000 -0.707107
v 0.392847 -0.392848 -0.831470
v 0.270598 -0.270598 -0.923880
v 0.137950 -0.137950 -0.980785
l 194 193
l 195 194
l 196 195
l 197 196
l 198 197
l 199 198
l 200 199
l 201 200
l 202 201
l 203 202
l 204 203
l 205 204
l 206 205
l 207 206
l 208 207
l 209 208
l 210 209
l 211 210
l 212 211
l 213 212
l 214 213
l 215 214
l 216 215
l 217 216
l 218 217
l 219 218
l 220 219
l 221 220
l 222 221
l 223 222
l 224 223
l 193 224
o flex_y-z
v 0.000000 -0.707107 0.707107
v -0.195090 -0.693520 0.693520
v -0.382683 -0.653281 0.653282
v -0.555570 -0.587938 0.587938
v -0.707107 -0.500000 0.500000
v -0.831470 -0.392847 0.392848
v -0.923880 -0.270598 0.270598
v -0.980785 -0.137950 0.137950
v -1.000000 0.000000 0.000000
v -0.980785 0.137950 -0.137950
v -0.923880 0.270598 -0.270598
v -0.831470 0.392847 -0.392848
v -0.707107 0.500000 -0.500000
v -0.555570 0.587938 -0.587938
v -0.382683 0.653281 -0.653282
v -0.195090 0.693520 -0.693520
v 0.000000 0.707107 -0.707107
v 0.195090 0.693520 -0.693520
v 0.382683 0.653281 -0.653282
v 0.555570 0.587938 -0.587938
v 0.707107 0.500000 -0.500000
v 0.831470 0.392847 -0.392848
v 0.923880 0.270598 -0.270598
v 0.980785 0.137950 -0.137950
v 1.000000 0.000000 0.000000
v 0.980785 -0.137950 0.137950
v 0.923880 -0.270598 0.270598
v 0.831470 -0.392847 0.392848
v 0.707107 -0.500000 0.500000
v 0.555570 -0.587938 0.587938
v 0.382683 -0.653281 0.653282
v 0.195090 -0.693520 0.693520
l 226 225
l 227 226
l 228 227
l 229 228
l 230 229
l 231 230
l 232 231
l 233 232
l 234 233
l 235 234
l 236 235
l 237 236
l 238 237
l 239 238
l 240 239
l 241 240
l 242 241
l 243 242
l 244 243
l 245 244
l 246 245
l 247 246
l 248 247
l 249 248
l 250 249
l 251 250
l 252 251
l 253 252
l 254 253
l 255 254
l 256 255
l 225 256
o flex_y+z
v 0.000000 -0.707107 -0.707107
v -0.195090 -0.693520 -0.693520
v -0.382683 -0.653282 -0.653281
v -0.555570 -0.587938 -0.587938
v -0.707107 -0.500000 -0.500000
v -0.831470 -0.392848 -0.392847
v -0.923880 -0.270598 -0.270598
v -0.980785 -0.137950 -0.137950
v -1.000000 0.000000 0.000000
v -0.980785 0.137950 0.137950
v -0.923880 0.270598 0.270598
v -0.831470 0.392848 0.392847
v -0.707107 0.500000 0.500000
v -0.555570 0.587938 0.587938
v -0.382683 0.653282 0.653281
v -0.195090 0.693520 0.693520
v 0.000000 0.707107 0.707107
v 0.195090 0.693520 0.693520
v 0.382683 0.653282 0.653281
v 0.555570 0.587938 0.587938
v 0.707107 0.500000 0.500000
v 0.831470 0.392848 0.392847
v 0.923880 0.270598 0.270598
v 0.980785 0.137950 0.137950
v 1.000000 0.000000 0.000000
v 0.980785 -0.137950 -0.137950
v 0.923880 -0.270598 -0.270598
v 0.831470 -0.392848 -0.392847
v 0.707107 -0.500000 -0.500000
v 0.555570 -0.587938 -0.587938
v 0.382683 -0.653282 -0.653281
v 0.195090 -0.693520 -0.693520
l 258 257
l 259 258
l 260 259
l 261 260
l 262 261
l 263 262
l 264 263
l 265 264
l 266 265
l 267 266
l 268 267
l 269 268
l 270 269
l 271 270
l 272 271
l 273 272
l 274 273
l 275 274
l 276 275
l 277 276
l 278 277
l 279 278
l 280 279
l 281 280
l 282 281
l 283 282
l 284 283
l 285 284
l 286 285
l 287 286
l 288 287
l 257 288
